<?xml version="1.0" encoding="utf-8"?>
<!-- Generator: Adobe Illustrator 26.0.3, SVG Export Plug-In . SVG Version: 6.00 Build 0)  -->
<svg version="1.1" id="Layer_1" xmlns="http://www.w3.org/2000/svg" xmlns:xlink="http://www.w3.org/1999/xlink" x="0px" y="0px"
	 viewBox="0 0 50 40" style="enable-background:new 0 0 50 40;" xml:space="preserve">
<style type="text/css">
	.st0{fill:#FDC012;}
</style>
<path class="st0" d="M43.65,40H6.35C2.84,40,0,37.16,0,33.65V6.35C0,2.84,2.84,0,6.35,0h37.31C47.16,0,50,2.84,50,6.35v27.31
	C50,37.16,47.16,40,43.65,40z"/>
<g>
	<path d="M18.89,25.34c0-0.7-0.26-1.27-0.77-1.71c-0.52-0.44-1.17-0.84-1.95-1.2c-0.78-0.36-1.63-0.74-2.54-1.12
		c-0.91-0.38-1.76-0.86-2.54-1.42c-0.78-0.56-1.43-1.26-1.94-2.09c-0.52-0.83-0.77-1.9-0.77-3.2c0-1.12,0.19-2.09,0.56-2.92
		c0.37-0.82,0.91-1.51,1.6-2.06c0.69-0.55,1.51-0.96,2.46-1.22c0.94-0.26,2-0.4,3.17-0.4c1.34,0,2.6,0.12,3.79,0.35
		c1.19,0.23,2.16,0.57,2.93,1.01l-1.42,3.79c-0.48-0.31-1.21-0.59-2.18-0.84c-0.97-0.25-2.01-0.38-3.13-0.38
		c-1.06,0-1.86,0.21-2.42,0.63c-0.56,0.42-0.84,0.98-0.84,1.68c0,0.66,0.26,1.21,0.77,1.65c0.52,0.44,1.17,0.85,1.95,1.22
		c0.78,0.37,1.63,0.76,2.54,1.15c0.91,0.4,1.76,0.87,2.54,1.43c0.78,0.56,1.43,1.25,1.94,2.08c0.52,0.82,0.77,1.85,0.77,3.08
		c0,1.23-0.2,2.29-0.61,3.18c-0.41,0.89-0.98,1.63-1.71,2.22c-0.74,0.59-1.63,1.03-2.67,1.32S16.22,32,14.96,32
		c-1.65,0-3.1-0.15-4.35-0.46c-1.25-0.31-2.18-0.62-2.77-0.92l1.45-3.86c0.24,0.13,0.55,0.28,0.94,0.43c0.38,0.15,0.82,0.3,1.3,0.43
		c0.48,0.13,0.99,0.24,1.53,0.33c0.54,0.09,1.09,0.13,1.67,0.13c1.34,0,2.37-0.22,3.08-0.68C18.53,26.95,18.89,26.26,18.89,25.34z"
		/>
	<path d="M42.03,30.59c-0.7,0.5-1.6,0.86-2.69,1.08S37.14,32,36,32c-1.38,0-2.7-0.21-3.94-0.64c-1.24-0.43-2.34-1.12-3.28-2.08
		c-0.95-0.96-1.7-2.2-2.26-3.73c-0.56-1.53-0.84-3.38-0.84-5.55c0-2.26,0.31-4.16,0.94-5.69c0.63-1.53,1.44-2.76,2.44-3.69
		s2.12-1.6,3.35-2.01C33.63,8.2,34.87,8,36.1,8c1.32,0,2.43,0.09,3.35,0.26c0.91,0.18,1.66,0.38,2.26,0.63l-0.89,3.82
		c-0.5-0.24-1.1-0.42-1.79-0.53c-0.69-0.11-1.53-0.17-2.52-0.17c-1.82,0-3.29,0.65-4.4,1.95c-1.11,1.3-1.66,3.31-1.66,6.05
		c0,1.19,0.13,2.27,0.39,3.25c0.26,0.98,0.66,1.82,1.2,2.51c0.54,0.69,1.21,1.23,2.01,1.62c0.8,0.39,1.73,0.58,2.79,0.58
		c0.99,0,1.82-0.1,2.51-0.3c0.68-0.2,1.27-0.45,1.78-0.76L42.03,30.59z"/>
</g>
</svg>
